<svg width="38" height="40" viewBox="0 0 38 40" fill="none" xmlns="http://www.w3.org/2000/svg">
<path d="M26.7999 19V17C26.7999 15.9391 26.3482 14.9217 25.544 14.1716C24.7399 13.4214 23.6492 13 22.5119 13H13.9359C12.7987 13 11.708 13.4214 10.9039 14.1716C10.0997 14.9217 9.64795 15.9391 9.64795 17V19" stroke="#7D7D7D" stroke-width="2" stroke-linecap="round" stroke-linejoin="round"/>
<path d="M18.224 9C20.5922 9 22.512 7.20914 22.512 5C22.512 2.79086 20.5922 1 18.224 1C15.8558 1 13.936 2.79086 13.936 5C13.936 7.20914 15.8558 9 18.224 9Z" stroke="#7D7D7D" stroke-width="2" stroke-linecap="round" stroke-linejoin="round"/>
<path d="M4.38369 30.3C5.49102 30.3 6.33802 30.5017 6.92469 30.905C7.51869 31.3083 7.81569 31.939 7.81569 32.797C7.81569 33.2443 7.73502 33.6293 7.57369 33.952C7.41969 34.2673 7.19235 34.5277 6.89169 34.733C6.59102 34.931 6.22435 35.0777 5.79169 35.173C5.35902 35.2683 4.86402 35.316 4.30669 35.316H3.61369V38H2.22769V30.487C2.55035 30.4137 2.90602 30.366 3.29469 30.344C3.69069 30.3147 4.05369 30.3 4.38369 30.3ZM4.48269 31.499C4.13069 31.499 3.84102 31.51 3.61369 31.532V34.128H4.28469C4.95202 34.128 5.46535 34.0363 5.82469 33.853C6.18402 33.6623 6.36369 33.3067 6.36369 32.786C6.36369 32.5367 6.31602 32.3277 6.22069 32.159C6.12535 31.9903 5.99335 31.8583 5.82469 31.763C5.65602 31.6677 5.45435 31.6017 5.21969 31.565C4.99235 31.521 4.74669 31.499 4.48269 31.499ZM12.2932 33.446C12.1832 33.4093 12.0292 33.3727 11.8312 33.336C11.6405 33.292 11.4169 33.27 11.1602 33.27C11.0135 33.27 10.8559 33.2847 10.6872 33.314C10.5259 33.3433 10.4122 33.369 10.3462 33.391V38H9.0152V32.522C9.27187 32.4267 9.59087 32.3387 9.9722 32.258C10.3609 32.17 10.7899 32.126 11.2592 32.126C11.3472 32.126 11.4499 32.1333 11.5672 32.148C11.6845 32.1553 11.8019 32.17 11.9192 32.192C12.0365 32.2067 12.1502 32.2287 12.2602 32.258C12.3702 32.28 12.4582 32.302 12.5242 32.324L12.2932 33.446ZM18.6547 35.118C18.6547 35.5727 18.5887 35.987 18.4567 36.361C18.3247 36.735 18.1377 37.054 17.8957 37.318C17.6537 37.582 17.3604 37.7873 17.0157 37.934C16.6784 38.0807 16.3044 38.154 15.8937 38.154C15.4831 38.154 15.1091 38.0807 14.7717 37.934C14.4344 37.7873 14.1447 37.582 13.9027 37.318C13.6607 37.054 13.4701 36.735 13.3307 36.361C13.1987 35.987 13.1327 35.5727 13.1327 35.118C13.1327 34.6633 13.1987 34.2527 13.3307 33.886C13.4701 33.512 13.6607 33.193 13.9027 32.929C14.1521 32.665 14.4454 32.4633 14.7827 32.324C15.1201 32.1773 15.4904 32.104 15.8937 32.104C16.2971 32.104 16.6674 32.1773 17.0047 32.324C17.3494 32.4633 17.6427 32.665 17.8847 32.929C18.1267 33.193 18.3137 33.512 18.4457 33.886C18.5851 34.2527 18.6547 34.6633 18.6547 35.118ZM17.2907 35.118C17.2907 34.546 17.1661 34.095 16.9167 33.765C16.6747 33.4277 16.3337 33.259 15.8937 33.259C15.4537 33.259 15.1091 33.4277 14.8597 33.765C14.6177 34.095 14.4967 34.546 14.4967 35.118C14.4967 35.6973 14.6177 36.1557 14.8597 36.493C15.1091 36.8303 15.4537 36.999 15.8937 36.999C16.3337 36.999 16.6747 36.8303 16.9167 36.493C17.1661 36.1557 17.2907 35.6973 17.2907 35.118ZM25.8009 38H24.4699V32.247H25.8009V38ZM25.9549 30.564C25.9549 30.8133 25.8743 31.0113 25.7129 31.158C25.5516 31.3047 25.3609 31.378 25.1409 31.378C24.9136 31.378 24.7193 31.3047 24.5579 31.158C24.3966 31.0113 24.3159 30.8133 24.3159 30.564C24.3159 30.3073 24.3966 30.1057 24.5579 29.959C24.7193 29.8123 24.9136 29.739 25.1409 29.739C25.3609 29.739 25.5516 29.8123 25.7129 29.959C25.8743 30.1057 25.9549 30.3073 25.9549 30.564ZM22.3909 29.464C22.6696 29.464 22.9043 29.486 23.0949 29.53C23.2929 29.574 23.4469 29.618 23.5569 29.662L23.3479 30.74C23.2453 30.7033 23.1206 30.6703 22.9739 30.641C22.8346 30.6117 22.6806 30.597 22.5119 30.597C22.0719 30.597 21.7676 30.7143 21.5989 30.949C21.4376 31.1837 21.3569 31.488 21.3569 31.862V32.247H23.4689V33.358H21.3569V38H20.0259V31.84C20.0259 31.092 20.2203 30.509 20.6089 30.091C20.9976 29.673 21.5916 29.464 22.3909 29.464ZM29.5045 38.11C29.1085 38.1027 28.7785 38.0587 28.5145 37.978C28.2578 37.8973 28.0525 37.7837 27.8985 37.637C27.7445 37.483 27.6345 37.296 27.5685 37.076C27.5098 36.8487 27.4805 36.592 27.4805 36.306V29.684L28.8115 29.464V36.053C28.8115 36.2143 28.8225 36.35 28.8445 36.46C28.8738 36.57 28.9215 36.6653 28.9875 36.746C29.0535 36.8193 29.1415 36.878 29.2515 36.922C29.3688 36.9587 29.5155 36.988 29.6915 37.01L29.5045 38.11ZM30.4491 35.151C30.4491 34.645 30.5225 34.2013 30.6691 33.82C30.8231 33.4387 31.0248 33.1233 31.2741 32.874C31.5235 32.6173 31.8095 32.4267 32.1321 32.302C32.4548 32.17 32.7848 32.104 33.1221 32.104C33.9141 32.104 34.5301 32.3497 34.9701 32.841C35.4175 33.3323 35.6411 34.0657 35.6411 35.041C35.6411 35.1143 35.6375 35.1987 35.6301 35.294C35.6301 35.382 35.6265 35.4627 35.6191 35.536H31.8241C31.8608 35.998 32.0221 36.3573 32.3081 36.614C32.6015 36.8633 33.0231 36.988 33.5731 36.988C33.8958 36.988 34.1891 36.9587 34.4531 36.9C34.7245 36.8413 34.9371 36.779 35.0911 36.713L35.2671 37.802C35.1938 37.8387 35.0911 37.879 34.9591 37.923C34.8345 37.9597 34.6878 37.9927 34.5191 38.022C34.3578 38.0587 34.1818 38.088 33.9911 38.11C33.8005 38.132 33.6061 38.143 33.4081 38.143C32.9021 38.143 32.4621 38.0697 32.0881 37.923C31.7141 37.769 31.4061 37.56 31.1641 37.296C30.9221 37.0247 30.7425 36.7093 30.6251 36.35C30.5078 35.9833 30.4491 35.5837 30.4491 35.151ZM34.3101 34.557C34.3101 34.3737 34.2845 34.2013 34.2331 34.04C34.1818 33.8713 34.1048 33.7283 34.0021 33.611C33.9068 33.4863 33.7858 33.391 33.6391 33.325C33.4998 33.2517 33.3311 33.215 33.1331 33.215C32.9278 33.215 32.7481 33.2553 32.5941 33.336C32.4401 33.4093 32.3081 33.5083 32.1981 33.633C32.0955 33.7577 32.0148 33.9007 31.9561 34.062C31.8975 34.2233 31.8571 34.3883 31.8351 34.557H34.3101Z" fill="#7D7D7D"/>
</svg>
