<svg width="34" height="40" viewBox="0 0 34 40" fill="none" xmlns="http://www.w3.org/2000/svg">
<path d="M7.38884 30.377H8.77484V38H7.38884V34.623H4.07784V38H2.69184V30.377H4.07784V33.424H7.38884V30.377ZM15.7351 35.118C15.7351 35.5727 15.6691 35.987 15.5371 36.361C15.4051 36.735 15.2181 37.054 14.9761 37.318C14.7341 37.582 14.4408 37.7873 14.0961 37.934C13.7588 38.0807 13.3848 38.154 12.9741 38.154C12.5634 38.154 12.1894 38.0807 11.8521 37.934C11.5148 37.7873 11.2251 37.582 10.9831 37.318C10.7411 37.054 10.5504 36.735 10.4111 36.361C10.2791 35.987 10.2131 35.5727 10.2131 35.118C10.2131 34.6633 10.2791 34.2527 10.4111 33.886C10.5504 33.512 10.7411 33.193 10.9831 32.929C11.2324 32.665 11.5258 32.4633 11.8631 32.324C12.2004 32.1773 12.5708 32.104 12.9741 32.104C13.3774 32.104 13.7478 32.1773 14.0851 32.324C14.4298 32.4633 14.7231 32.665 14.9651 32.929C15.2071 33.193 15.3941 33.512 15.5261 33.886C15.6654 34.2527 15.7351 34.6633 15.7351 35.118ZM14.3711 35.118C14.3711 34.546 14.2464 34.095 13.9971 33.765C13.7551 33.4277 13.4141 33.259 12.9741 33.259C12.5341 33.259 12.1894 33.4277 11.9401 33.765C11.6981 34.095 11.5771 34.546 11.5771 35.118C11.5771 35.6973 11.6981 36.1557 11.9401 36.493C12.1894 36.8303 12.5341 36.999 12.9741 36.999C13.4141 36.999 13.7551 36.8303 13.9971 36.493C14.2464 36.1557 14.3711 35.6973 14.3711 35.118ZM20.3843 34.975C20.3843 34.3737 20.3073 33.941 20.1533 33.677C20.0066 33.4057 19.728 33.27 19.3173 33.27C19.1706 33.27 19.0093 33.281 18.8333 33.303C18.6573 33.325 18.5253 33.3433 18.4373 33.358V38H17.1063V32.434C17.363 32.3607 17.6966 32.291 18.1073 32.225C18.5253 32.159 18.9653 32.126 19.4273 32.126C19.8233 32.126 20.146 32.1773 20.3953 32.28C20.652 32.3827 20.8646 32.5183 21.0333 32.687C21.114 32.6283 21.2166 32.566 21.3413 32.5C21.466 32.434 21.6053 32.3753 21.7593 32.324C21.9133 32.2653 22.0746 32.2177 22.2433 32.181C22.4193 32.1443 22.5953 32.126 22.7713 32.126C23.2186 32.126 23.5853 32.192 23.8713 32.324C24.1646 32.4487 24.392 32.6283 24.5533 32.863C24.722 33.0903 24.8356 33.369 24.8943 33.699C24.9603 34.0217 24.9933 34.3773 24.9933 34.766V38H23.6623V34.975C23.6623 34.3737 23.589 33.941 23.4423 33.677C23.2956 33.4057 23.0133 33.27 22.5953 33.27C22.3826 33.27 22.181 33.3067 21.9903 33.38C21.7996 33.446 21.6566 33.512 21.5613 33.578C21.62 33.7613 21.6603 33.9557 21.6823 34.161C21.7043 34.3663 21.7153 34.5863 21.7153 34.821V38H20.3843V34.975ZM26.3049 35.151C26.3049 34.645 26.3782 34.2013 26.5249 33.82C26.6789 33.4387 26.8806 33.1233 27.1299 32.874C27.3792 32.6173 27.6652 32.4267 27.9879 32.302C28.3106 32.17 28.6406 32.104 28.9779 32.104C29.7699 32.104 30.3859 32.3497 30.8259 32.841C31.2732 33.3323 31.4969 34.0657 31.4969 35.041C31.4969 35.1143 31.4932 35.1987 31.4859 35.294C31.4859 35.382 31.4822 35.4627 31.4749 35.536H27.6799C27.7166 35.998 27.8779 36.3573 28.1639 36.614C28.4572 36.8633 28.8789 36.988 29.4289 36.988C29.7516 36.988 30.0449 36.9587 30.3089 36.9C30.5802 36.8413 30.7929 36.779 30.9469 36.713L31.1229 37.802C31.0496 37.8387 30.9469 37.879 30.8149 37.923C30.6902 37.9597 30.5436 37.9927 30.3749 38.022C30.2136 38.0587 30.0376 38.088 29.8469 38.11C29.6562 38.132 29.4619 38.143 29.2639 38.143C28.7579 38.143 28.3179 38.0697 27.9439 37.923C27.5699 37.769 27.2619 37.56 27.0199 37.296C26.7779 37.0247 26.5982 36.7093 26.4809 36.35C26.3636 35.9833 26.3049 35.5837 26.3049 35.151ZM30.1659 34.557C30.1659 34.3737 30.1402 34.2013 30.0889 34.04C30.0376 33.8713 29.9606 33.7283 29.8579 33.611C29.7626 33.4863 29.6416 33.391 29.4949 33.325C29.3556 33.2517 29.1869 33.215 28.9889 33.215C28.7836 33.215 28.6039 33.2553 28.4499 33.336C28.2959 33.4093 28.1639 33.5083 28.0539 33.633C27.9512 33.7577 27.8706 33.9007 27.8119 34.062C27.7532 34.2233 27.7129 34.3883 27.6909 34.557H30.1659Z" fill="#F26B6C"/>
<path d="M6.73596 8L16.384 1L26.032 8V19C26.032 19.5304 25.8061 20.0391 25.404 20.4142C25.0019 20.7893 24.4566 21 23.888 21H8.87996C8.31134 21 7.766 20.7893 7.36392 20.4142C6.96185 20.0391 6.73596 19.5304 6.73596 19V8Z" stroke="#F26B6C" stroke-width="2" stroke-linecap="round" stroke-linejoin="round"/>
<path d="M13.168 21V11H19.6V21" stroke="#F26B6C" stroke-width="2" stroke-linecap="round" stroke-linejoin="round"/>
</svg>
