<svg width="38" height="46" viewBox="0 0 38 46" fill="none" xmlns="http://www.w3.org/2000/svg">
<path d="M17.5 19.5C17.605 19.5 17.71 19.4965 17.815 19.4895C17.98 18.9075 18.204 18.3555 18.487 17.8335C18.0348 17.991 17.5515 18.038 17.0775 17.9706C16.6034 17.9032 16.1524 17.7232 15.7621 17.4459C15.3718 17.1685 15.0536 16.8017 14.834 16.3762C14.6144 15.9507 14.4999 15.4788 14.5 15V7.5015C14.5 6.70585 14.8161 5.94279 15.3787 5.38018C15.9413 4.81757 16.7044 4.5015 17.5 4.5015C18.2956 4.5015 19.0587 4.81757 19.6213 5.38018C20.1839 5.94279 20.5 6.70585 20.5 7.5015V15.0015C20.5 15.1395 20.491 15.2755 20.473 15.4095C20.943 15.0175 21.452 14.6815 22 14.4015V7.5C22 6.30653 21.5259 5.16193 20.682 4.31802C19.8381 3.47411 18.6935 3 17.5 3C16.3065 3 15.1619 3.47411 14.318 4.31802C13.4741 5.16193 13 6.30653 13 7.5V15C13 16.1935 13.4741 17.3381 14.318 18.182C15.1619 19.0259 16.3065 19.5 17.5 19.5ZM10.75 15C10.75 16.7902 11.4612 18.5071 12.727 19.773C13.9929 21.0388 15.7098 21.75 17.5 21.75C17.5 22.9785 17.7685 24.144 18.25 25.191V26.25C18.25 26.4489 18.171 26.6397 18.0303 26.7803C17.8897 26.921 17.6989 27 17.5 27C17.3011 27 17.1103 26.921 16.9697 26.7803C16.829 26.6397 16.75 26.4489 16.75 26.25V23.217C14.7001 23.0299 12.7942 22.0832 11.4066 20.5629C10.0189 19.0426 9.24971 17.0584 9.25 15C9.25 14.8011 9.32902 14.6103 9.46967 14.4697C9.61032 14.329 9.80109 14.25 10 14.25C10.1989 14.25 10.3897 14.329 10.5303 14.4697C10.671 14.6103 10.75 14.8011 10.75 15ZM29.5 21.75C29.5 22.7446 29.1049 23.6984 28.4016 24.4016C27.6984 25.1049 26.7446 25.5 25.75 25.5C24.7554 25.5 23.8016 25.1049 23.0983 24.4016C22.3951 23.6984 22 22.7446 22 21.75C22 20.7554 22.3951 19.8016 23.0983 19.0984C23.8016 18.3951 24.7554 18 25.75 18C26.7446 18 27.6984 18.3951 28.4016 19.0984C29.1049 19.8016 29.5 20.7554 29.5 21.75ZM32.5 21.75C32.5 23.5402 31.7888 25.2571 30.523 26.523C29.2571 27.7888 27.5402 28.5 25.75 28.5C23.9598 28.5 22.2429 27.7888 20.977 26.523C19.7112 25.2571 19 23.5402 19 21.75C19 19.9598 19.7112 18.2429 20.977 16.977C22.2429 15.7112 23.9598 15 25.75 15C27.5402 15 29.2571 15.7112 30.523 16.977C31.7888 18.2429 32.5 19.9598 32.5 21.75ZM20.5 21.75C20.5 22.4394 20.6358 23.1221 20.8996 23.7591C21.1635 24.396 21.5502 24.9748 22.0377 25.4623C22.5252 25.9498 23.104 26.3365 23.7409 26.6004C24.3779 26.8642 25.0606 27 25.75 27C26.4394 27 27.1221 26.8642 27.7591 26.6004C28.396 26.3365 28.9748 25.9498 29.4623 25.4623C29.9498 24.9748 30.3365 24.396 30.6004 23.7591C30.8642 23.1221 31 22.4394 31 21.75C31 20.3576 30.4469 19.0223 29.4623 18.0377C28.4777 17.0531 27.1424 16.5 25.75 16.5C24.3576 16.5 23.0223 17.0531 22.0377 18.0377C21.0531 19.0223 20.5 20.3576 20.5 21.75Z" fill="#7D7D7D"/>
<path d="M3.79695 36.3C4.89695 36.3 5.73662 36.5017 6.31595 36.905C6.90262 37.3083 7.19595 37.9243 7.19595 38.753C7.19595 39.787 6.68628 40.4873 5.66695 40.854C5.80628 41.0227 5.96395 41.228 6.13995 41.47C6.31595 41.712 6.49562 41.976 6.67895 42.262C6.86228 42.5407 7.03828 42.8303 7.20695 43.131C7.37562 43.4243 7.52595 43.714 7.65795 44H6.10695C5.96762 43.736 5.81728 43.472 5.65595 43.208C5.49462 42.9367 5.32962 42.6763 5.16095 42.427C4.99962 42.1703 4.83828 41.932 4.67695 41.712C4.51562 41.4847 4.36528 41.283 4.22595 41.107C4.12328 41.1143 4.03528 41.118 3.96195 41.118C3.88862 41.118 3.81895 41.118 3.75295 41.118H3.08195V44H1.69595V36.487C2.03328 36.4137 2.39262 36.366 2.77395 36.344C3.15528 36.3147 3.49628 36.3 3.79695 36.3ZM3.89595 37.499C3.60262 37.499 3.33128 37.51 3.08195 37.532V39.996H3.68695C4.02428 39.996 4.32128 39.9777 4.57795 39.941C4.83462 39.9043 5.04728 39.8383 5.21595 39.743C5.39195 39.6477 5.52395 39.5193 5.61195 39.358C5.69995 39.1967 5.74395 38.9913 5.74395 38.742C5.74395 38.5073 5.69995 38.3093 5.61195 38.148C5.52395 37.9867 5.39562 37.8583 5.22695 37.763C5.06562 37.6677 4.87128 37.6017 4.64395 37.565C4.41662 37.521 4.16728 37.499 3.89595 37.499ZM8.34708 41.151C8.34708 40.645 8.42042 40.2013 8.56708 39.82C8.72108 39.4387 8.92275 39.1233 9.17208 38.874C9.42142 38.6173 9.70742 38.4267 10.0301 38.302C10.3527 38.17 10.6827 38.104 11.0201 38.104C11.8121 38.104 12.4281 38.3497 12.8681 38.841C13.3154 39.3323 13.5391 40.0657 13.5391 41.041C13.5391 41.1143 13.5354 41.1987 13.5281 41.294C13.5281 41.382 13.5244 41.4627 13.5171 41.536H9.72208C9.75875 41.998 9.92008 42.3573 10.2061 42.614C10.4994 42.8633 10.9211 42.988 11.4711 42.988C11.7937 42.988 12.0871 42.9587 12.3511 42.9C12.6224 42.8413 12.8351 42.779 12.9891 42.713L13.1651 43.802C13.0917 43.8387 12.9891 43.879 12.8571 43.923C12.7324 43.9597 12.5857 43.9927 12.4171 44.022C12.2557 44.0587 12.0797 44.088 11.8891 44.11C11.6984 44.132 11.5041 44.143 11.3061 44.143C10.8001 44.143 10.3601 44.0697 9.98608 43.923C9.61208 43.769 9.30408 43.56 9.06208 43.296C8.82008 43.0247 8.64042 42.7093 8.52308 42.35C8.40575 41.9833 8.34708 41.5837 8.34708 41.151ZM12.2081 40.557C12.2081 40.3737 12.1824 40.2013 12.1311 40.04C12.0797 39.8713 12.0027 39.7283 11.9001 39.611C11.8047 39.4863 11.6837 39.391 11.5371 39.325C11.3977 39.2517 11.2291 39.215 11.0311 39.215C10.8257 39.215 10.6461 39.2553 10.4921 39.336C10.3381 39.4093 10.2061 39.5083 10.0961 39.633C9.99342 39.7577 9.91275 39.9007 9.85408 40.062C9.79542 40.2233 9.75508 40.3883 9.73308 40.557H12.2081ZM14.6313 41.129C14.6313 40.7037 14.6973 40.3077 14.8293 39.941C14.9613 39.567 15.1483 39.2443 15.3903 38.973C15.6396 38.7017 15.9403 38.489 16.2923 38.335C16.6443 38.181 17.0403 38.104 17.4803 38.104C18.0229 38.104 18.5363 38.203 19.0203 38.401L18.7343 39.49C18.5803 39.424 18.4043 39.369 18.2063 39.325C18.0156 39.281 17.8103 39.259 17.5903 39.259C17.0696 39.259 16.6736 39.424 16.4023 39.754C16.1309 40.0767 15.9953 40.535 15.9953 41.129C15.9953 41.701 16.1236 42.1557 16.3803 42.493C16.6369 42.823 17.0696 42.988 17.6783 42.988C17.9056 42.988 18.1293 42.966 18.3493 42.922C18.5693 42.878 18.7599 42.823 18.9213 42.757L19.1083 43.857C18.9616 43.9303 18.7379 43.9963 18.4373 44.055C18.1439 44.1137 17.8396 44.143 17.5243 44.143C17.0329 44.143 16.6039 44.0697 16.2373 43.923C15.8779 43.769 15.5773 43.56 15.3353 43.296C15.1006 43.0247 14.9246 42.7057 14.8073 42.339C14.6899 41.965 14.6313 41.5617 14.6313 41.129ZM25.2236 41.118C25.2236 41.5727 25.1576 41.987 25.0256 42.361C24.8936 42.735 24.7066 43.054 24.4646 43.318C24.2226 43.582 23.9292 43.7873 23.5846 43.934C23.2472 44.0807 22.8732 44.154 22.4626 44.154C22.0519 44.154 21.6779 44.0807 21.3406 43.934C21.0032 43.7873 20.7136 43.582 20.4716 43.318C20.2296 43.054 20.0389 42.735 19.8996 42.361C19.7676 41.987 19.7016 41.5727 19.7016 41.118C19.7016 40.6633 19.7676 40.2527 19.8996 39.886C20.0389 39.512 20.2296 39.193 20.4716 38.929C20.7209 38.665 21.0142 38.4633 21.3516 38.324C21.6889 38.1773 22.0592 38.104 22.4626 38.104C22.8659 38.104 23.2362 38.1773 23.5736 38.324C23.9182 38.4633 24.2116 38.665 24.4536 38.929C24.6956 39.193 24.8826 39.512 25.0146 39.886C25.1539 40.2527 25.2236 40.6633 25.2236 41.118ZM23.8596 41.118C23.8596 40.546 23.7349 40.095 23.4856 39.765C23.2436 39.4277 22.9026 39.259 22.4626 39.259C22.0226 39.259 21.6779 39.4277 21.4286 39.765C21.1866 40.095 21.0656 40.546 21.0656 41.118C21.0656 41.6973 21.1866 42.1557 21.4286 42.493C21.6779 42.8303 22.0226 42.999 22.4626 42.999C22.9026 42.999 23.2436 42.8303 23.4856 42.493C23.7349 42.1557 23.8596 41.6973 23.8596 41.118ZM29.8728 39.446C29.7628 39.4093 29.6088 39.3727 29.4108 39.336C29.2201 39.292 28.9965 39.27 28.7398 39.27C28.5931 39.27 28.4355 39.2847 28.2668 39.314C28.1055 39.3433 27.9918 39.369 27.9258 39.391V44H26.5948V38.522C26.8515 38.4267 27.1705 38.3387 27.5518 38.258C27.9405 38.17 28.3695 38.126 28.8388 38.126C28.9268 38.126 29.0295 38.1333 29.1468 38.148C29.2641 38.1553 29.3815 38.17 29.4988 38.192C29.6161 38.2067 29.7298 38.2287 29.8398 38.258C29.9498 38.28 30.0378 38.302 30.1038 38.324L29.8728 39.446ZM32.0763 41.107C32.0763 41.6937 32.2157 42.1557 32.4943 42.493C32.773 42.823 33.158 42.988 33.6493 42.988C33.862 42.988 34.0417 42.9807 34.1883 42.966C34.3423 42.944 34.467 42.922 34.5623 42.9V39.6C34.445 39.5193 34.2873 39.446 34.0893 39.38C33.8987 39.3067 33.6933 39.27 33.4733 39.27C32.9893 39.27 32.6337 39.435 32.4063 39.765C32.1863 40.095 32.0763 40.5423 32.0763 41.107ZM35.8933 43.824C35.6293 43.9047 35.2957 43.978 34.8923 44.044C34.4963 44.11 34.0783 44.143 33.6383 44.143C33.1837 44.143 32.7767 44.0733 32.4173 43.934C32.058 43.7947 31.75 43.5967 31.4933 43.34C31.244 43.076 31.0496 42.7607 30.9103 42.394C30.7783 42.02 30.7123 41.602 30.7123 41.14C30.7123 40.6853 30.7673 40.2747 30.8773 39.908C30.9946 39.534 31.1633 39.215 31.3833 38.951C31.6033 38.687 31.871 38.4853 32.1863 38.346C32.5017 38.1993 32.8647 38.126 33.2753 38.126C33.554 38.126 33.7997 38.159 34.0123 38.225C34.225 38.291 34.4083 38.3643 34.5623 38.445V35.684L35.8933 35.464V43.824Z" fill="#7D7D7D"/>
</svg>
