<svg width="38" height="40" viewBox="0 0 38 40" fill="none" xmlns="http://www.w3.org/2000/svg">
<path d="M4.45704 36.966C4.9557 36.966 5.3187 36.8817 5.54604 36.713C5.77337 36.5443 5.88704 36.306 5.88704 35.998C5.88704 35.8147 5.8467 35.657 5.76604 35.525C5.6927 35.393 5.5827 35.2757 5.43604 35.173C5.2967 35.063 5.12437 34.964 4.91904 34.876C4.7137 34.7807 4.47904 34.689 4.21504 34.601C3.95104 34.5057 3.69437 34.403 3.44504 34.293C3.20304 34.1757 2.9867 34.0327 2.79604 33.864C2.6127 33.6953 2.46237 33.4937 2.34504 33.259C2.23504 33.0243 2.18004 32.742 2.18004 32.412C2.18004 31.7227 2.41837 31.1837 2.89504 30.795C3.3717 30.399 4.0207 30.201 4.84204 30.201C5.3187 30.201 5.74037 30.256 6.10704 30.366C6.48104 30.4687 6.77437 30.5823 6.98704 30.707L6.55804 31.829C6.3087 31.6897 6.0337 31.5833 5.73304 31.51C5.4397 31.4367 5.13537 31.4 4.82004 31.4C4.44604 31.4 4.1527 31.477 3.94004 31.631C3.7347 31.785 3.63204 32.0013 3.63204 32.28C3.63204 32.4487 3.66504 32.5953 3.73104 32.72C3.80437 32.8373 3.90337 32.9437 4.02804 33.039C4.16004 33.1343 4.31037 33.2223 4.47904 33.303C4.65504 33.3837 4.8457 33.4607 5.05104 33.534C5.41037 33.666 5.72937 33.8017 6.00804 33.941C6.29404 34.073 6.53237 34.2343 6.72304 34.425C6.92104 34.6083 7.07137 34.8283 7.17404 35.085C7.2767 35.3343 7.32804 35.6387 7.32804 35.998C7.32804 36.6873 7.08237 37.2227 6.59104 37.604C6.10704 37.978 5.3957 38.165 4.45704 38.165C4.1417 38.165 3.85204 38.143 3.58804 38.099C3.33137 38.0623 3.10037 38.0147 2.89504 37.956C2.69704 37.8973 2.5247 37.8387 2.37804 37.78C2.23137 37.714 2.11404 37.6553 2.02604 37.604L2.43304 36.471C2.63104 36.581 2.8987 36.691 3.23604 36.801C3.57337 36.911 3.98037 36.966 4.45704 36.966ZM8.16447 35.151C8.16447 34.645 8.2378 34.2013 8.38447 33.82C8.53847 33.4387 8.74013 33.1233 8.98947 32.874C9.2388 32.6173 9.5248 32.4267 9.84747 32.302C10.1701 32.17 10.5001 32.104 10.8375 32.104C11.6295 32.104 12.2455 32.3497 12.6855 32.841C13.1328 33.3323 13.3565 34.0657 13.3565 35.041C13.3565 35.1143 13.3528 35.1987 13.3455 35.294C13.3455 35.382 13.3418 35.4627 13.3345 35.536H9.53947C9.57613 35.998 9.73747 36.3573 10.0235 36.614C10.3168 36.8633 10.7385 36.988 11.2885 36.988C11.6111 36.988 11.9045 36.9587 12.1685 36.9C12.4398 36.8413 12.6525 36.779 12.8065 36.713L12.9825 37.802C12.9091 37.8387 12.8065 37.879 12.6745 37.923C12.5498 37.9597 12.4031 37.9927 12.2345 38.022C12.0731 38.0587 11.8971 38.088 11.7065 38.11C11.5158 38.132 11.3215 38.143 11.1235 38.143C10.6175 38.143 10.1775 38.0697 9.80347 37.923C9.42947 37.769 9.12147 37.56 8.87947 37.296C8.63747 37.0247 8.4578 36.7093 8.34047 36.35C8.22313 35.9833 8.16447 35.5837 8.16447 35.151ZM12.0255 34.557C12.0255 34.3737 11.9998 34.2013 11.9485 34.04C11.8971 33.8713 11.8201 33.7283 11.7175 33.611C11.6221 33.4863 11.5011 33.391 11.3545 33.325C11.2151 33.2517 11.0465 33.215 10.8485 33.215C10.6431 33.215 10.4635 33.2553 10.3095 33.336C10.1555 33.4093 10.0235 33.5083 9.91347 33.633C9.8108 33.7577 9.73013 33.9007 9.67147 34.062C9.6128 34.2233 9.57247 34.3883 9.55047 34.557H12.0255ZM16.7916 37.065C17.2023 37.065 17.514 37.043 17.7266 36.999V35.525C17.6533 35.503 17.547 35.481 17.4076 35.459C17.2683 35.437 17.1143 35.426 16.9456 35.426C16.799 35.426 16.6486 35.437 16.4946 35.459C16.348 35.481 16.2123 35.5213 16.0876 35.58C15.9703 35.6387 15.875 35.723 15.8016 35.833C15.7283 35.9357 15.6916 36.0677 15.6916 36.229C15.6916 36.5443 15.7906 36.7643 15.9886 36.889C16.1866 37.0063 16.4543 37.065 16.7916 37.065ZM16.6816 32.104C17.1216 32.104 17.492 32.159 17.7926 32.269C18.0933 32.379 18.3316 32.533 18.5076 32.731C18.691 32.929 18.8193 33.171 18.8926 33.457C18.9733 33.7357 19.0136 34.0437 19.0136 34.381V37.868C18.8083 37.912 18.4966 37.9633 18.0786 38.022C17.668 38.088 17.2023 38.121 16.6816 38.121C16.337 38.121 16.0216 38.088 15.7356 38.022C15.4496 37.956 15.204 37.8497 14.9986 37.703C14.8006 37.5563 14.643 37.3657 14.5256 37.131C14.4156 36.8963 14.3606 36.6067 14.3606 36.262C14.3606 35.932 14.423 35.6533 14.5476 35.426C14.6796 35.1987 14.8556 35.0153 15.0756 34.876C15.2956 34.7293 15.5486 34.6267 15.8346 34.568C16.128 34.502 16.4323 34.469 16.7476 34.469C16.8943 34.469 17.0483 34.48 17.2096 34.502C17.371 34.5167 17.5433 34.546 17.7266 34.59V34.37C17.7266 34.216 17.7083 34.0693 17.6716 33.93C17.635 33.7907 17.569 33.6697 17.4736 33.567C17.3856 33.457 17.2646 33.3727 17.1106 33.314C16.964 33.2553 16.777 33.226 16.5496 33.226C16.2416 33.226 15.9593 33.248 15.7026 33.292C15.446 33.336 15.237 33.3873 15.0756 33.446L14.9106 32.368C15.0793 32.3093 15.325 32.2507 15.6476 32.192C15.9703 32.1333 16.315 32.104 16.6816 32.104ZM23.9216 33.446C23.8116 33.4093 23.6576 33.3727 23.4596 33.336C23.269 33.292 23.0453 33.27 22.7886 33.27C22.642 33.27 22.4843 33.2847 22.3156 33.314C22.1543 33.3433 22.0406 33.369 21.9746 33.391V38H20.6436V32.522C20.9003 32.4267 21.2193 32.3387 21.6006 32.258C21.9893 32.17 22.4183 32.126 22.8876 32.126C22.9756 32.126 23.0783 32.1333 23.1956 32.148C23.313 32.1553 23.4303 32.17 23.5476 32.192C23.665 32.2067 23.7786 32.2287 23.8886 32.258C23.9986 32.28 24.0866 32.302 24.1526 32.324L23.9216 33.446ZM24.7611 35.129C24.7611 34.7037 24.8271 34.3077 24.9591 33.941C25.0911 33.567 25.2781 33.2443 25.5201 32.973C25.7695 32.7017 26.0701 32.489 26.4221 32.335C26.7741 32.181 27.1701 32.104 27.6101 32.104C28.1528 32.104 28.6661 32.203 29.1501 32.401L28.8641 33.49C28.7101 33.424 28.5341 33.369 28.3361 33.325C28.1455 33.281 27.9401 33.259 27.7201 33.259C27.1995 33.259 26.8035 33.424 26.5321 33.754C26.2608 34.0767 26.1251 34.535 26.1251 35.129C26.1251 35.701 26.2535 36.1557 26.5101 36.493C26.7668 36.823 27.1995 36.988 27.8081 36.988C28.0355 36.988 28.2591 36.966 28.4791 36.922C28.6991 36.878 28.8898 36.823 29.0511 36.757L29.2381 37.857C29.0915 37.9303 28.8678 37.9963 28.5671 38.055C28.2738 38.1137 27.9695 38.143 27.6541 38.143C27.1628 38.143 26.7338 38.0697 26.3671 37.923C26.0078 37.769 25.7071 37.56 25.4651 37.296C25.2305 37.0247 25.0545 36.7057 24.9371 36.339C24.8198 35.965 24.7611 35.5617 24.7611 35.129ZM30.2686 38V29.684L31.5996 29.464V32.313C31.7463 32.2617 31.915 32.2177 32.1056 32.181C32.3036 32.1443 32.498 32.126 32.6886 32.126C33.1506 32.126 33.532 32.192 33.8326 32.324C34.1406 32.4487 34.3863 32.6283 34.5696 32.863C34.753 33.0903 34.8813 33.3653 34.9546 33.688C35.0353 34.0107 35.0756 34.37 35.0756 34.766V38H33.7446V34.975C33.7446 34.667 33.7226 34.4067 33.6786 34.194C33.642 33.974 33.576 33.798 33.4806 33.666C33.3926 33.5267 33.2716 33.4277 33.1176 33.369C32.9636 33.303 32.773 33.27 32.5456 33.27C32.3696 33.27 32.19 33.2883 32.0066 33.325C31.8233 33.3617 31.6876 33.3947 31.5996 33.424V38H30.2686Z" fill="#7D7D7D"/>
<path d="M17.1519 17C21.8883 17 25.7279 13.4183 25.7279 9C25.7279 4.58172 21.8883 1 17.1519 1C12.4155 1 8.57593 4.58172 8.57593 9C8.57593 13.4183 12.4155 17 17.1519 17Z" stroke="#7D7D7D" stroke-width="2" stroke-linecap="round" stroke-linejoin="round"/>
<path d="M27.8719 19L23.2087 14.65" stroke="#7D7D7D" stroke-width="2" stroke-linecap="round" stroke-linejoin="round"/>
</svg>
